<svg xmlns="http://www.w3.org/2000/svg" width="256" height="256" viewBox="0 0 100 100"><rect width="100" height="100" rx="50" fill="#3471ff"></rect><path d="M33.61 39.57L33.61 39.57Q33.61 40.19 33.24 40.63Q32.86 41.07 32.38 41.29L32.38 41.29Q31.23 40.50 29.69 39.79Q28.15 39.09 25.69 39.09L25.69 39.09Q23.67 39.09 21.95 39.79Q20.23 40.50 18.96 41.86Q17.68 43.22 16.96 45.29Q16.23 47.36 16.23 50.04L16.23 50.04Q16.23 52.77 16.93 54.80Q17.64 56.82 18.89 58.18Q20.15 59.55 21.91 60.23Q23.67 60.91 25.82 60.91L25.82 60.91Q28.11 60.91 29.80 60.27Q31.50 59.64 32.64 58.76L32.64 58.76Q33.08 58.93 33.48 59.39Q33.87 59.86 33.87 60.47L33.87 60.47Q33.87 61.40 32.82 62.14L32.82 62.14Q31.81 62.85 30.05 63.40Q28.29 63.95 25.56 63.95L25.56 63.95Q22.79 63.95 20.41 63.07Q18.03 62.19 16.30 60.45Q14.56 58.71 13.55 56.12Q12.53 53.52 12.53 50.04L12.53 50.04Q12.53 46.57 13.57 43.95Q14.60 41.33 16.36 39.57Q18.12 37.81 20.48 36.93Q22.83 36.05 25.43 36.05L25.43 36.05Q27.23 36.05 28.75 36.36Q30.27 36.67 31.34 37.17Q32.42 37.68 33.02 38.32Q33.61 38.96 33.61 39.57ZM58.69 49.69L58.69 49.69Q58.69 46.88 57.83 44.87Q56.97 42.87 55.50 41.60Q54.03 40.32 52.07 39.73Q50.11 39.13 47.87 39.13L47.87 39.13Q46.46 39.13 45.42 39.22Q44.39 39.31 43.51 39.48L43.51 39.48L43.51 60.43Q44.57 60.69 45.78 60.78Q46.99 60.87 48.26 60.87L48.26 60.87Q53.45 60.87 56.07 58.05Q58.69 55.24 58.69 49.69ZM62.34 49.69L62.34 49.69Q62.34 53.30 61.35 55.96Q60.36 58.62 58.54 60.38Q56.71 62.14 54.11 63.00Q51.52 63.86 48.31 63.86L48.31 63.86Q46.90 63.86 45.14 63.75Q43.38 63.64 41.79 63.16L41.79 63.16Q39.95 62.58 39.95 61.13L39.95 61.13L39.95 38.52Q39.95 37.81 40.30 37.44Q40.65 37.06 41.40 36.84L41.40 36.84Q42.76 36.40 44.48 36.27Q46.19 36.14 47.91 36.14L47.91 36.14Q51.12 36.14 53.78 37.00Q56.45 37.86 58.34 39.55Q60.23 41.24 61.29 43.77Q62.34 46.30 62.34 49.69ZM76.69 53.83L72.24 53.83L72.24 63.29Q71.98 63.38 71.54 63.49Q71.10 63.60 70.57 63.60L70.57 63.60Q68.63 63.60 68.63 61.97L68.63 61.97L68.63 38.56Q68.63 37.86 68.99 37.48Q69.34 37.11 70.09 36.89L70.09 36.89Q71.36 36.49 73.19 36.32Q75.01 36.14 76.73 36.14L76.73 36.14Q82.32 36.14 84.89 38.49Q87.47 40.85 87.47 44.85L87.47 44.85Q87.47 48.94 84.83 51.39Q82.19 53.83 76.69 53.83L76.69 53.83ZM72.20 50.84L76.47 50.84Q79.99 50.84 81.92 49.38Q83.86 47.93 83.86 44.90L83.86 44.90Q83.86 41.90 81.99 40.52Q80.12 39.13 76.64 39.13L76.64 39.13Q75.45 39.13 74.29 39.24Q73.12 39.35 72.20 39.53L72.20 39.53L72.20 50.84Z" fill="#fff"></path></svg>